<svg data-v-6805eed4="" version="1.0" xmlns="http://www.w3.org/2000/svg" xmlns:xlink="http://www.w3.org/1999/xlink" width="100%" height="100%" viewBox="0 0 340.000000 250.000000" preserveAspectRatio="xMidYMid meet" color-interpolation-filters="sRGB" style="margin: auto;">   <g data-v-6805eed4="" fill="#e9cdb3" class="basesvg" transform="translate(78.28749084472656,90.54294963836674)"><g fill-rule="" class="tp-name" transform="translate(0,0)"><g transform="scale(2.020000000000001)"><g><g fill="url(#CfGMnfGDtjHwp_-3l_Y0Q)" data-gra-ignore="true"><path d="M30.87-28.3L30.29-24.07 13.23-24.07 12.55-19.35 29.61-19.35 27.31-2.7 4.72-2.7Q3.42-2.7 2.65-3.58 1.89-4.46 2.07-5.76L2.07-5.76 5.26-28.3 30.87-28.3ZM20.47-15.07L11.97-15.07 10.8-6.97 19.35-6.97 20.47-15.07ZM51.64-17.23L52.63-24.07 44.03-24.07 43.63-20.65 35.08-20.65 36.16-28.35 61.76-28.35 59.6-12.96 41.65-12.96 40.84-6.97 57.08-6.97 59.02-8.69 58.16-2.7 35.62-2.7Q34.31-2.7 33.55-3.58 32.78-4.46 32.96-5.76L32.96-5.76 34.58-17.23 51.64-17.23ZM81.27-6.97L81.99-12.11 64.94-12.11 67.19-28.3 92.84-28.3 89.64-5.76Q89.46-4.46 88.45-3.58 87.44-2.7 86.18-2.7L86.18-2.7 63.59-2.7 64.26-6.97 81.27-6.97ZM83.7-24.07L75.15-24.07 74.03-16.38 82.63-16.38 83.7-24.07Z" transform="translate(-2.035531997680664, 28.350000381469727)"></path></g><defs><pattern id="CfGMnfGDtjHwp_-3l_Y0Q" x="0" y="2.1750001907348633" width="30" height="30" viewBox="0 0 100 100" preserveAspectRatio="xMidYMid meet" patternTransform="matrix(1,0,0,1,0,0)" patternUnits="userSpaceOnUse"><g data-gra="path-name"><svg width="100" height="100" viewBox="0 0 100 100" xmlns="http://www.w3.org/2000/svg">
  <g stroke="none" stroke-width="1" fill-rule="evenodd">
    <g>
      <path d="M100,93.0232558 L100,100 L0,100 L0,93.0232558 L100,93.0232558 Z M100,84.1085271 L100,89.9224806 L0,89.9224806 L0,84.1085271 L100,84.1085271 Z M100,75.5813953 L100,81.0077519 L0,81.0077519 L0,75.5813953 L100,75.5813953 Z M100,67.4418605 L100,72.4806202 L0,72.4806202 L0,67.4418605 L100,67.4418605 Z M100,59.6899225 L100,64.3410853 L0,64.3410853 L0,59.6899225 L100,59.6899225 Z M100,52.3255814 L100,56.5891473 L0,56.5891473 L0,52.3255814 L100,52.3255814 Z M100,45.3488372 L100,49.2248062 L0,49.2248062 L0,45.3488372 L100,45.3488372 Z M100,38.7596899 L100,42.248062 L0,42.248062 L0,38.7596899 L100,38.7596899 Z M100,32.5581395 L100,35.6589147 L0,35.6589147 L0,32.5581395 L100,32.5581395 Z M100,26.744186 L100,29.4573643 L0,29.4573643 L0,26.744186 L100,26.744186 Z M100,21.3178295 L100,23.6434109 L0,23.6434109 L0,21.3178295 L100,21.3178295 Z M100,16.2790698 L100,18.2170543 L0,18.2170543 L0,16.2790698 L100,16.2790698 Z M100,11.627907 L100,13.1782946 L0,13.1782946 L0,11.627907 L100,11.627907 Z M100,7.36434109 L100,8.52713178 L0,8.52713178 L0,7.36434109 L100,7.36434109 Z M100,3.48837209 L100,4.26356589 L0,4.26356589 L0,3.48837209 L100,3.48837209 Z M100,0 L100,0.387596899 L0,0.387596899 L0,0 L100,0 Z"></path>
    </g>
  </g>
</svg></g></pattern></defs></g></g></g> <g data-gra="path-slogan" fill-rule="" class="tp-slogan" fill="#e9cdb3" transform="translate(52.39108657836914,57.8129997253418)"><!----> <!----> <g transform="scale(1, 1)"><g transform="scale(1.2400000000000002)"><path d="M7.17-6.09L7.17-6.09L6.09-6.09Q6-7.73 3.94-7.83L3.94-7.83Q2.02-7.78 2.02-6.33L2.02-6.33Q2.02-5.39 3.05-5.25L3.05-5.25L5.48-4.69Q7.41-4.22 7.41-2.34L7.41-2.34Q7.36 0.05 4.03 0.14L4.03 0.14Q2.20 0.14 1.45-0.61L1.45-0.61Q0.52-1.31 0.56-2.77L0.56-2.77L1.69-2.77Q1.73-0.80 4.03-0.75L4.03-0.75Q6.28-0.80 6.33-2.20L6.33-2.20Q6.52-3.38 4.45-3.75L4.45-3.75L2.67-4.13Q0.84-4.64 0.84-6.19L0.84-6.19Q0.98-8.72 3.84-8.81L3.84-8.81Q7.08-8.81 7.17-6.09ZM11.86-8.58L13.03-8.58L13.03-1.03L17.39-1.03L17.39 0L11.86 0L11.86-8.58ZM28.31-4.27L28.31-4.27Q28.13-7.64 25.31-7.83L25.31-7.83Q22.45-7.69 22.31-4.27L22.31-4.27Q22.45-0.94 25.31-0.80L25.31-0.80Q28.13-0.98 28.31-4.27ZM29.48-4.27L29.48-4.27Q29.20 0 25.31 0.14L25.31 0.14Q21.38 0 21.09-4.27L21.09-4.27Q21.33-8.72 25.31-8.81L25.31-8.81Q29.20-8.67 29.48-4.27ZM40.27-3.61L37.64-3.61L37.64-4.59L41.39-4.59L41.39 0L40.64 0L40.36-1.08Q39.38 0.09 37.55 0.14L37.55 0.14Q35.81 0.14 34.88-0.75L34.88-0.75Q33.47-2.06 33.52-4.36L33.52-4.36Q33.84-8.63 37.59-8.81L37.59-8.81Q40.78-8.63 41.25-6L41.25-6L40.13-6Q39.66-7.78 37.55-7.83L37.55-7.83Q34.88-7.64 34.73-4.31L34.73-4.31Q34.73-0.75 37.59-0.75L37.59-0.75Q38.63-0.75 39.38-1.31L39.38-1.31Q40.31-2.06 40.27-3.61L40.27-3.61ZM51.84 0L51-2.48L47.53-2.48L46.64 0L45.47 0L48.70-8.58L50.02-8.58L53.11 0L51.84 0ZM49.27-7.31L47.91-3.52L50.58-3.52L49.31-7.31L49.27-7.31ZM58.55-8.58L62.86-1.64L62.86-8.58L63.98-8.58L63.98 0L62.67 0L58.31-6.94L58.27-6.94L58.27 0L57.14 0L57.14-8.58L58.55-8.58Z" transform="translate(-0.5602678571428572, 8.8125)"></path></g></g></g></g><defs v-gra="od"></defs></svg>